HIERARCHY
ROOT Hips
{
  OFFSET 31.5945 99.0598 -4.85531
  CHANNELS 6 Xposition Yposition Zposition Zrotation Xrotation Yrotation
  JOINT spine
  {
    OFFSET 0 8.30104 0.477351
    CHANNELS 3 Zrotation Xrotation Yrotation
    JOINT spine1
    {
      OFFSET 0 10.4565 0
      CHANNELS 3 Zrotation Xrotation Yrotation
      JOINT spine2
      {
        OFFSET 0 10.0192 0
        CHANNELS 3 Zrotation Xrotation Yrotation
        JOINT Neck
        {
          OFFSET 0 25.7235 1.22641
          CHANNELS 3 Zrotation Xrotation Yrotation
          JOINT Head
          {
            OFFSET 0 7.77175 0
            CHANNELS 3 Zrotation Xrotation Yrotation
            End Site
            {
              OFFSET 0 18.812 -6.20394
            }
          }
        }
        JOINT RightShoulder
        {
          OFFSET -4.2188 10.82 -0.587439
          CHANNELS 3 Zrotation Xrotation Yrotation
          JOINT RightArm
          {
            OFFSET 0 14.1914 0
            CHANNELS 3 Zrotation Xrotation Yrotation
            JOINT RightArmRoll
            {
              OFFSET 0 7.16408 0
              CHANNELS 3 Zrotation Xrotation Yrotation
              JOINT RightForeArm
              {
                OFFSET 0 20.8665 0
                CHANNELS 3 Zrotation Xrotation Yrotation
                JOINT RightForeArmRoll
                {
                  OFFSET 0 8.03921 0
                  CHANNELS 3 Zrotation Xrotation Yrotation
                  JOINT RightHand
                  {
                    OFFSET 0 16.133 0
                    CHANNELS 3 Zrotation Xrotation Yrotation
                    End Site
                    {
                      OFFSET 0 0 0
                    }
                  }
                }
              }
            }
          }
        }
        JOINT LeftShoulder
        {
          OFFSET 4.2188 10.82 -0.587439
          CHANNELS 3 Zrotation Xrotation Yrotation
          JOINT LeftArm
          {
            OFFSET 0 14.1914 0
            CHANNELS 3 Zrotation Xrotation Yrotation
            JOINT LeftArmRoll
            {
              OFFSET 0 7.16408 0
              CHANNELS 3 Zrotation Xrotation Yrotation
              JOINT LeftForeArm
              {
                OFFSET 0 20.8665 0
                CHANNELS 3 Zrotation Xrotation Yrotation
                JOINT LeftForeArmRoll
                {
                  OFFSET 0 8.03921 0
                  CHANNELS 3 Zrotation Xrotation Yrotation
                  JOINT LeftHand
                  {
                    OFFSET 0 16.133 0
                    CHANNELS 3 Zrotation Xrotation Yrotation
                    End Site
                    {
                      OFFSET 0 0 0
                    }
                  }
                }
              }
            }
          }
        }
      }
    }
  }
  JOINT RightUpLeg
  {
    OFFSET -7.35773 -1.34921 -1.13181
    CHANNELS 3 Zrotation Xrotation Yrotation
    JOINT RightUpLegRoll
    {
      OFFSET 0 18.9168 0
      CHANNELS 3 Zrotation Xrotation Yrotation
      JOINT RightLeg
      {
        OFFSET 0 -23.4256 0
        CHANNELS 3 Zrotation Xrotation Yrotation
        JOINT RightLegRoll
        {
          OFFSET 0 23.5023 0
          CHANNELS 3 Zrotation Xrotation Yrotation
          JOINT RightFoot
          {
            OFFSET 0 19.5617 0
            CHANNELS 3 Zrotation Xrotation Yrotation
            JOINT RightToeBase
            {
              OFFSET 0 16.3526 0
              CHANNELS 3 Zrotation Xrotation Yrotation
              End Site
              {
                OFFSET 0.00693125 7.91943 -0.912837
              }
            }
          }
        }
      }
    }
  }
  JOINT LeftUpLeg
  {
    OFFSET 7.35773 -1.34921 -1.13181
    CHANNELS 3 Zrotation Xrotation Yrotation
    JOINT LeftUpLegRoll
    {
      OFFSET 0 18.9169 0
      CHANNELS 3 Zrotation Xrotation Yrotation
      JOINT LeftLeg
      {
        OFFSET 0 23.4255 0
        CHANNELS 3 Zrotation Xrotation Yrotation
        JOINT LeftLegRoll
        {
          OFFSET 0 23.7195 0
          CHANNELS 3 Zrotation Xrotation Yrotation
          JOINT LeftFoot
          {
            OFFSET 0 19.3444 0
            CHANNELS 3 Zrotation Xrotation Yrotation
            JOINT LeftToeBase
            {
              OFFSET 0 16.3526 0
              CHANNELS 3 Zrotation Xrotation Yrotation
              End Site
              {
                OFFSET -0.0310629 7.91944 -0.912837
              }
            }
          }
        }
      }
    }
  }
}
MOTION
Frames: 6
Frame Time: 0.00208333
36.8978 98.9594 9.1018 0.462854 -3.69511 1.61251 0.12407 -0.604442 0.18801 0.231974 2.7943 0.363493 0.227876 4.43937 0.359911 -0.418712 19.6431 -1.73772 -0.176431 -6.42211 -1.89771 74.069 -0.46235 -1.98718 92.6394 26.775 24.7399 -7.84518e-006 2.71086e-006 -4.22526e-008 7.86303 0.0603381 0.178402 -1.65595e-006 -8.79199e-006 -3.02239 8.02915 -4.95141 0.697672 -66.6344 4.19096 -1.23402 -100.043 16.649 -14.166 3.97569e-016 1.59028e-015 -3.18055e-015 -9.97392 7.60056 1.32113 6.48265e-006 2.34501e-006 3 -8.02896 -4.95143 -0.697675 173.41 -2.36556 2.49332 180 -1.52555e-005 178.812 176.256 5.23576 179.713 4.9539e-006 -5.89571e-006 0.0583196 -18.4596 67.5772 19.2014 8.12891 25.2331 -3.48451 -172.549 -1.82566 -0.952469 4.54188e-006 -4.6773e-006 -1.28625 -3.0357 -8.49129 0.493898 -2.07828e-006 -6.62033e-007 -0.100179 18.0495 66.9132 -18.6507 -8.13034 25.233 3.48511 
36.8971 98.9612 9.10138 0.460534 -3.68627 1.61809 0.124055 -0.603196 0.18782 0.232797 2.7968 0.363036 0.228705 4.44186 0.35944 -0.410959 19.6402 -1.73999 -0.176146 -6.44173 -1.89743 74.0658 -0.463941 -1.98755 92.6318 26.785 24.7312 -7.84518e-006 2.71086e-006 -4.22526e-008 7.86706 0.0603375 0.181488 -1.65595e-006 -8.79199e-006 -3.02205 8.02915 -4.95141 0.697672 -66.6319 4.1895 -1.23367 -100.033 16.6506 -14.1799 -1.51076e-014 -1.59028e-015 -4.77083e-015 -9.96688 7.58426 1.31854 6.48265e-006 2.34501e-006 3 -8.02896 -4.95143 -0.697675 173.415 -2.35132 2.48919 180 -1.52555e-005 178.812 176.259 5.24476 179.713 4.9539e-006 -5.89571e-006 0.0584416 -18.4565 67.5733 19.1983 8.12891 25.2331 -3.48451 -172.544 -1.8021 -0.956543 4.54188e-006 -4.6773e-006 -1.28628 -3.03697 -8.51149 0.493408 -2.07828e-006 -6.62033e-007 -0.100436 18.0519 66.9162 -18.6534 -8.13034 25.233 3.48511 
36.8676 98.9561 9.12248 0.458102 -3.67791 1.6233 0.124032 -0.601909 0.187633 0.233622 2.79937 0.362639 0.229536 4.44443 0.359029 -0.402618 19.6378 -1.7423 -0.176281 -6.46169 -1.89706 74.0634 -0.465408 -1.98794 92.6232 26.7954 24.7227 -7.84518e-006 2.71086e-006 -4.22526e-008 7.87102 0.0603369 0.184598 -1.65595e-006 -8.79199e-006 -3.02171 8.02915 -4.95141 0.697672 -66.6291 4.18798 -1.23334 -100.024 16.6522 -14.1939 -3.57812e-015 -3.18055e-015 -0 -9.95976 7.56836 1.31596 6.48265e-006 2.34501e-006 3 -8.02896 -4.95143 -0.697675 173.421 -2.33811 2.48465 180 -1.52555e-005 178.812 176.262 5.25306 179.713 4.9539e-006 -5.89571e-006 0.0585527 -18.4537 67.5699 19.1955 8.12891 25.2331 -3.48451 -172.539 -1.77996 -0.960601 4.54188e-006 -4.6773e-006 -1.28634 -3.03824 -8.53046 0.4929 -2.07828e-006 -6.62033e-007 -0.100667 18.0543 66.9193 -18.6561 -8.13034 25.233 3.48511 
36.872 98.9564 9.11404 0.455592 -3.6699 1.62826 0.124004 -0.600594 0.187447 0.234448 2.802 0.362285 0.230367 4.44706 0.358661 -0.393865 19.6358 -1.74464 -0.176711 -6.4819 -1.89664 74.0614 -0.466787 -1.98834 92.6139 26.8061 24.7143 -7.84518e-006 2.71086e-006 -4.22526e-008 7.87494 0.0603364 0.187725 -1.65595e-006 -8.79199e-006 -3.02139 8.02915 -4.95141 0.697672 -66.6261 4.18641 -1.23303 -100.015 16.6538 -14.2079 5.56597e-015 6.36111e-015 -3.18055e-015 -9.95256 7.55275 1.3134 6.48265e-006 2.34501e-006 3 -8.02896 -4.95143 -0.697675 173.426 -2.32562 2.47981 180 -1.52555e-005 178.812 176.265 5.26091 179.712 4.9539e-006 -5.89571e-006 0.058656 -18.4511 67.5667 19.1929 8.12891 25.2331 -3.48451 -172.533 -1.75881 -0.964647 4.54188e-006 -4.6773e-006 -1.28641 -3.03952 -8.54856 0.492378 -2.07828e-006 -6.62033e-007 -0.10088 18.0567 66.9225 -18.6589 -8.13034 25.233 3.48511 
36.8798 98.9541 9.10491 0.453037 -3.66208 1.63307 0.123974 -0.599262 0.187262 0.235274 2.80467 0.361954 0.231198 4.44973 0.358317 -0.384877 19.634 -1.747 -0.177308 -6.50223 -1.89618 74.0597 -0.468116 -1.98874 92.6043 26.8171 24.7061 -7.84518e-006 2.71086e-006 -4.22526e-008 7.87884 0.0603358 0.190862 -1.65595e-006 -8.79199e-006 -3.02106 8.02915 -4.95141 0.697672 -66.6229 4.18483 -1.23272 -100.007 16.6554 -14.2218 -9.54166e-015 -1.59028e-015 -3.18055e-015 -9.94533 7.53731 1.31085 6.48265e-006 2.34501e-006 3 -8.02896 -4.95143 -0.697675 173.432 -2.31354 2.47481 180 -1.52555e-005 178.812 176.269 5.26847 179.712 4.9539e-006 -5.89571e-006 0.0587549 -18.4487 67.5637 19.1905 8.12891 25.2331 -3.48451 -172.528 -1.73822 -0.968688 4.54188e-006 -4.6773e-006 -1.2865 -3.04079 -8.56616 0.491849 -2.07828e-006 -6.62033e-007 -0.101083 18.0592 66.9257 -18.6616 -8.13034 25.233 3.48511 
36.8785 98.9533 9.10853 0.450469 -3.65431 1.63784 0.123942 -0.597926 0.187077 0.2361 2.80734 0.36163 0.23203 4.4524 0.357979 -0.37583 19.6322 -1.74935 -0.177948 -6.52261 -1.89572 74.0581 -0.469432 -1.98914 92.5946 26.8281 24.6978 -7.84518e-006 2.71086e-006 -4.22526e-008 7.88273 0.0603352 0.194001 -1.65595e-006 -8.79199e-006 -3.02073 8.02915 -4.95141 0.697672 -66.6197 4.18324 -1.23242 -99.9979 16.657 -14.2358 5.1684e-015 3.18055e-015 3.18055e-015 -9.9381 7.52191 1.3083 6.48265e-006 2.34501e-006 3 -8.02896 -4.95143 -0.697675 173.438 -2.30157 2.46976 180 -1.52555e-005 178.812 176.272 5.27598 179.712 4.9539e-006 -5.89571e-006 0.0588527 -18.4463 67.5608 19.1881 8.12891 25.2331 -3.48451 -172.522 -1.71778 -0.972727 4.54188e-006 -4.6773e-006 -1.28658 -3.04206 -8.58365 0.491317 -2.07828e-006 -6.62033e-007 -0.101283 18.0616 66.929 -18.6644 -8.13034 25.233 3.48511 
